  <svg
    version="1.0"
    xmlns="http://www.w3.org/2000/svg"
    width="20"
    height="20"
    viewBox="0 0 512.000000 512.000000"
    preserveAspectRatio="xMidYMid meet"
  >
    <g
      transform="translate(0.000000,512.000000) scale(0.100000,-0.100000)"
      stroke="none"
    >
      <path
        d="M322 2611 c3 -1709 3 -1710 24 -1737 11 -15 33 -37 48 -48 l27 -21
   2190 -3 2189 -2 0 160 0 160 -160 0 -160 0 -2 1229 c-3 1224 -3 1230 -24 1257
   -11 15 -33 37 -48 48 -27 20 -39 21 -406 21 -367 0 -379 -1 -406 -21 -15 -11
   -37 -33 -48 -48 -21 -27 -21 -33 -24 -1257 l-2 -1229 -160 0 -160 0 -2 1549
   c-3 1547 -3 1550 -24 1577 -11 15 -33 37 -48 48 -27 20 -39 21 -406 21 -367 0
   -379 -1 -406 -21 -15 -11 -37 -33 -48 -48 -21 -27 -21 -30 -24 -1577 l-2
   -1549 -160 0 -160 0 -2 829 c-3 820 -3 830 -24 857 -11 15 -33 37 -48 48 -27
   20 -39 21 -406 21 -367 0 -379 -1 -406 -21 -15 -11 -37 -33 -48 -48 -21 -27
   -21 -37 -24 -857 l-2 -829 -160 0 -160 0 0 1600 0 1600 -160 0 -160 0 2 -1709z
   m2558 -51 l0 -1440 -160 0 -160 0 0 1440 0 1440 160 0 160 0 0 -1440z m1280
   -320 l0 -1120 -160 0 -160 0 0 1120 0 1120 160 0 160 0 0 -1120z m-2560 -400
   l0 -720 -160 0 -160 0 0 720 0 720 160 0 160 0 0 -720z"
      />
    </g>
  </svg>