<svg
  version="1.0"
  xmlns="http://www.w3.org/2000/svg"
  width="20"
  height="20"
  viewBox="0 0 512.000000 512.000000"
  preserveAspectRatio="xMidYMid meet"
>
  <g
    transform="translate(0.000000,512.000000) scale(0.100000,-0.100000)"
    stroke="none"
  >
    <path
      d="M1127 4784 c-252 -46 -476 -187 -630 -401 -55 -75 -123 -226 -149
-329 -31 -124 -31 -352 0 -465 51 -188 141 -338 280 -470 107 -102 219 -170
349 -215 132 -45 223 -58 368 -51 149 6 247 31 380 97 251 124 444 359 517
630 30 113 33 367 4 470 -54 196 -140 344 -278 476 -228 219 -536 313 -841
258z m366 -223 c132 -34 228 -91 337 -201 108 -108 163 -198 201 -336 32 -113
32 -287 1 -398 -76 -266 -272 -462 -538 -538 -62 -17 -104 -22 -199 -22 -143
0 -210 16 -345 81 -82 40 -107 59 -190 142 -158 159 -222 312 -223 531 0 129
16 214 62 314 100 220 316 395 536 435 33 6 71 13 85 15 49 9 196 -4 273 -23z"
    />
    <path
      d="M1190 4370 l0 -80 -130 0 -130 0 0 -285 0 -285 258 -2 257 -3 3 -72
3 -73 -261 0 -260 0 0 -105 0 -105 130 0 130 0 0 -80 0 -80 105 0 104 0 3 78
3 77 128 3 127 3 0 284 0 285 -257 2 -258 3 0 70 0 70 258 3 257 2 0 105 0
105 -130 0 -130 0 0 80 0 80 -105 0 -105 0 0 -80z"
    />
    <path
      d="M4350 4439 c-144 -21 -1545 -219 -1554 -219 -6 0 70 -81 169 -180
l180 -180 -848 -848 -847 -847 357 -358 358 -357 847 847 848 848 178 -178
178 -178 113 798 c62 439 116 813 118 831 6 36 5 37 -97 21z m-154 -266 c-3
-16 -33 -228 -67 -473 -34 -245 -64 -447 -66 -449 -2 -3 -49 40 -103 94 l-100
100 -843 -843 c-463 -463 -846 -842 -852 -842 -5 0 -101 91 -212 202 l-203
203 847 847 848 848 -103 103 -103 103 458 66 c252 36 468 66 481 67 21 1 23
-3 18 -26z"
    />
    <path
      d="M3640 2256 c-371 -78 -664 -353 -762 -716 -30 -113 -33 -367 -4 -470
52 -188 127 -322 255 -453 416 -429 1110 -385 1473 93 67 88 143 246 170 355
32 130 32 345 0 464 -51 189 -138 336 -274 466 -132 127 -238 188 -415 241
-73 22 -113 27 -233 30 -98 2 -166 -1 -210 -10z m395 -226 c132 -41 222 -95
321 -194 101 -102 152 -182 191 -304 67 -211 42 -438 -69 -627 -53 -90 -173
-210 -263 -263 -237 -139 -529 -141 -772 -7 -101 56 -238 197 -290 300 -70
137 -88 210 -87 360 0 151 15 219 75 340 109 221 325 378 574 419 70 11 250
-3 320 -24z"
    />
    <path
      d="M3718 1843 l-3 -78 -127 -3 -128 -3 0 -284 0 -285 255 0 255 0 0 -75
0 -75 -255 0 -255 0 0 -105 0 -105 130 0 130 0 0 -80 0 -80 105 0 105 0 0 80
0 80 130 0 130 0 0 285 0 285 -257 2 -258 3 -3 73 -3 72 261 0 260 0 0 105 0
105 -130 0 -130 0 0 80 0 80 -105 0 -104 0 -3 -77z"
    />
    <path
      d="M1160 1855 l-75 -75 348 -348 347 -347 75 75 75 75 -348 348 -347
347 -75 -75z"
    />
    <path
      d="M782 1477 l-72 -72 348 -348 347 -347 75 75 75 75 -345 345 c-190
190 -347 345 -350 345 -3 0 -38 -33 -78 -73z"
    />
    <path
      d="M410 1105 l-75 -75 348 -348 347 -347 75 75 75 75 -348 348 -347 347
-75 -75z"
    />
  </g>
</svg>
