<svg
  xmlns="http://www.w3.org/2000/svg"
  version="1.0"
  width="20"
  height="20"
  viewBox="0 0 512.000000 512.000000"
  preserveAspectRatio="xMidYMid meet"
>
  <g
    transform="translate(0.000000,512.000000) scale(0.100000,-0.100000)"
    stroke="none"
  >
    <path d="M1420 5109 c-266 -34 -535 -137 -741 -285 -442 -316 -702 -846 -676 -1379 8 -159 31 -284 78 -428 189 -578 686 -1000 1289 -1092 121 -19 347 -19 470 -1 52 8 96 13 97 12 2 -1 -4 -50 -13 -107 -21 -140 -14 -404 15 -541 68 -317 213 -581 445 -814 141 -141 258 -226 421 -307 623 -309 1375 -178 1861 324 680 704 581 1833 -211 2415 -212 156 -477 261 -742 295 -110 14 -392 7 -471 -11 -29 -6 -55 -10 -58 -8 -2 3 3 52 12 109 21 139 14 403 -16 541 -67 317 -211 581 -444 813 -220 220 -449 352 -738 426 -174 44 -411 60 -578 38z m360 -304 c480 -64 889 -396 1055 -855 90 -250 98 -541 23 -805 l-23 -79 -82 -46 c-137 -75 -262 -169 -373 -280 -115 -116 -191 -217 -273 -361 l-53 -93 -69 -22 c-254 -80 -588 -69 -833 26 -310 120 -570 356 -716 648 -265 529 -125 1194 330 1571 294 243 646 346 1014 296z m2038 -1929 c714 -179 1141 -892 957 -1600 -174 -670 -845 -1085 -1527 -946 -500 102 -894 493 -1009 1000 -25 113 -35 320 -20 435 70 533 454 972 968 1105 128 33 189 39 363 35 135 -3 183 -8 268 -29z" />
    <path d="M1523 4508 c-52 -38 -63 -66 -63 -165 l0 -89 -76 -11 c-182 -26 -323 -151 -369 -328 -59 -230 72 -459 310 -538 17 -5 137 -12 267 -16 l238 -6 37 -38 c35 -35 38 -41 38 -97 0 -56 -3 -62 -38 -97 l-37 -38 -221 -3 -221 -3 -63 30 c-108 53 -195 35 -238 -49 -22 -43 -18 -111 10 -149 49 -65 168 -119 285 -129 l73 -7 5 -96 c6 -113 20 -141 87 -171 80 -35 149 -9 191 72 17 35 22 61 22 122 l0 78 39 0 c149 0 324 127 381 277 84 219 -15 465 -229 567 l-66 31 -240 5 c-227 5 -242 6 -276 28 -95 58 -88 194 12 244 29 15 62 18 214 18 99 0 197 -5 217 -10 20 -6 58 -29 85 -51 26 -22 65 -45 86 -51 107 -32 212 80 178 192 -25 83 -187 188 -325 211 l-74 13 -4 85 c-5 99 -22 139 -71 170 -48 29 -122 28 -164 -1z" />
    <path d="M3545 2420 c-268 -54 -437 -288 -405 -560 17 -138 20 -130 -57 -130 -117 0 -183 -54 -183 -150 0 -94 66 -150 178 -150 34 0 62 -4 62 -9 0 -55 -63 -246 -120 -365 -37 -77 -42 -94 -37 -139 4 -44 10 -56 45 -89 55 -51 73 -52 252 -10 100 23 137 26 285 26 152 0 182 -3 278 -27 154 -38 187 -37 240 12 41 39 42 41 42 106 0 65 -1 67 -40 104 -34 32 -56 41 -145 63 -147 37 -275 51 -427 47 l-130 -4 14 50 c9 27 23 90 32 140 l18 90 116 5 c124 5 147 14 191 73 27 37 27 117 0 155 -45 60 -77 72 -194 72 l-108 0 -7 114 c-9 142 -3 168 49 221 83 83 188 82 286 -1 58 -49 104 -62 160 -45 42 12 86 58 96 97 4 14 4 46 1 71 -4 38 -13 54 -58 100 -110 112 -280 164 -434 133z" />
    <path d="M3690 4939 c-85 -36 -122 -130 -82 -209 27 -55 70 -77 164 -85 164 -14 285 -70 398 -184 125 -126 168 -239 177 -461 l5 -135 -89 87 c-68 66 -97 88 -126 93 -95 18 -177 -49 -177 -145 0 -23 6 -53 14 -68 8 -15 115 -127 238 -249 l224 -223 53 0 c28 0 64 6 79 14 47 25 460 448 468 479 19 78 -20 155 -91 182 -74 29 -106 16 -206 -81 l-86 -85 -6 148 c-6 163 -27 266 -76 383 -133 312 -431 522 -775 545 -47 3 -91 1 -106 -6z" />
    <path d="M545 1741 c-55 -35 -453 -444 -461 -474 -19 -78 20 -155 91 -182 74 -29 106 -16 206 81 l86 85 6 -148 c8 -213 50 -365 143 -510 158 -250 441 -412 726 -417 73 -1 91 2 115 20 69 51 90 125 55 194 -26 53 -69 76 -159 85 -173 16 -291 69 -403 184 -125 126 -168 239 -177 461 l-5 135 89 -87 c68 -66 97 -88 126 -93 95 -18 177 49 177 145 0 23 -6 53 -14 68 -8 15 -115 127 -238 250 l-224 222 -55 0 c-36 0 -64 -6 -84 -19z" />
  </g>
</svg>
