<svg
  width="24"
  height="24"
  viewBox="0 0 24 24"
  fill="none"
  xmlns="http://www.w3.org/2000/svg"
>
  <path
    d="M18.2036 16.8396C18.2036 17.2192 17.9215 17.533 17.5554 17.5827L17.4536 17.5896L3.83584 17.5896C3.42162 17.5896 3.08584 17.2538 3.08584 16.8396C3.08584 16.4599 3.36799 16.1461 3.73407 16.0964L3.83584 16.0896L17.4536 16.0896C17.8678 16.0896 18.2036 16.4253 18.2036 16.8396Z"
    fill="#2C66B8"
  />
  <path
    d="M8.46111 20.3857C8.75468 20.6779 8.75578 21.1528 8.46356 21.4463C8.19791 21.7132 7.7813 21.7384 7.48719 21.5212L7.4029 21.4488L3.30624 17.371C3.03848 17.1045 3.01414 16.6862 3.23321 16.3921L3.30624 16.3079L7.4029 12.2301C7.69647 11.9379 8.17135 11.939 8.46356 12.2326C8.72921 12.4994 8.75245 12.9162 8.53392 13.2093L8.46111 13.2932L4.89912 16.839L8.46111 20.3857Z"
    fill="#2C66B8"
  />
  <path
    d="M20.9171 6.91111C20.9171 7.29081 20.635 7.6046 20.2689 7.65426L20.1671 7.66111L6.54934 7.66111C6.13512 7.66111 5.79934 7.32532 5.79934 6.91111C5.79934 6.53141 6.08149 6.21762 6.44757 6.16796L6.54934 6.16111L20.1671 6.16111C20.5813 6.16111 20.9171 6.4969 20.9171 6.91111Z"
    fill="#2C66B8"
  />
  <path
    d="M20.6968 6.37967C20.9646 6.64619 20.9889 7.06444 20.7699 7.35854L20.6968 7.44277L16.6002 11.5206C16.3066 11.8128 15.8317 11.8117 15.5395 11.5181C15.2739 11.2512 15.2506 10.8345 15.4691 10.5414L15.542 10.4574L19.1051 6.911L15.542 3.365C15.2751 3.09935 15.2499 2.68274 15.4671 2.38863L15.5395 2.30434C15.8052 2.03746 16.2218 2.01229 16.5159 2.22946L16.6002 2.30189L20.6968 6.37967Z"
    fill="#2C66B8"
  />
</svg>
